<mxfile host="app.diagrams.net" agent="Mozilla/5.0 (Windows NT 10.0; Win64; x64) AppleWebKit/537.36 (KHTML, like Gecko) Chrome/131.0.0.0 Safari/537.36" version="24.8.6">
  <diagram id="R2lEEEUBdFMjLlhIrx00" name="Page-1">
    <mxGraphModel grid="1" page="1" gridSize="10" guides="1" tooltips="1" connect="1" arrows="1" fold="1" pageScale="1" pageWidth="1169" pageHeight="827" background="#ffffff" math="0" shadow="1" extFonts="Permanent Marker^https://fonts.googleapis.com/css?family=Permanent+Marker">
      <root>
        <mxCell id="0" />
        <mxCell id="1" parent="0" />
        <mxCell id="Z_bIWVFWov2kq6kV5qWT-167" value="Entity Relationship Diagram for CheckInn" style="rounded=1;whiteSpace=wrap;html=1;fontSize=40;fillColor=#d5e8d4;strokeColor=#82b366;glass=0;shadow=1;arcSize=23;" vertex="1" parent="1">
          <mxGeometry x="477" y="48" width="1380" height="90" as="geometry" />
        </mxCell>
        <mxCell id="TDLvA_YiqEKy6rIOp3gj-14" value="Hotel" style="whiteSpace=wrap;html=1;align=center;fontSize=21;labelBackgroundColor=none;container=0;strokeWidth=2;" vertex="1" parent="1">
          <mxGeometry x="594.0199464084931" y="840.552995391705" width="159.04418250603973" height="64.0552995391705" as="geometry" />
        </mxCell>
        <mxCell id="TDLvA_YiqEKy6rIOp3gj-15" value="Room" style="whiteSpace=wrap;html=1;align=center;labelBackgroundColor=none;labelBorderColor=none;textShadow=0;fontSize=21;container=0;strokeWidth=2;" vertex="1" parent="1">
          <mxGeometry x="1357.4320224374837" y="536.2903225806451" width="159.04418250603973" height="64.0552995391705" as="geometry" />
        </mxCell>
        <mxCell id="wfy0pwBhBruym8MugSsH-2" style="edgeStyle=orthogonalEdgeStyle;rounded=0;orthogonalLoop=1;jettySize=auto;html=1;entryX=0.5;entryY=1;entryDx=0;entryDy=0;endArrow=none;endFill=0;startArrow=ERone;startFill=0;fontSize=21;strokeWidth=2;" edge="1" parent="1" source="TDLvA_YiqEKy6rIOp3gj-16" target="0F34in-1d9MKDhHFFbDU-13">
          <mxGeometry relative="1" as="geometry" />
        </mxCell>
        <mxCell id="TDLvA_YiqEKy6rIOp3gj-16" value="Customer" style="whiteSpace=wrap;html=1;align=center;fontSize=21;labelBackgroundColor=none;container=0;strokeWidth=2;" vertex="1" parent="1">
          <mxGeometry x="1325.6231859362758" y="1144.8156682027652" width="159.04418250603973" height="64.0552995391705" as="geometry" />
        </mxCell>
        <mxCell id="wfy0pwBhBruym8MugSsH-3" style="edgeStyle=orthogonalEdgeStyle;rounded=0;orthogonalLoop=1;jettySize=auto;html=1;entryX=1;entryY=0.5;entryDx=0;entryDy=0;endArrow=none;endFill=0;fontSize=21;strokeWidth=2;" edge="1" parent="1" source="TDLvA_YiqEKy6rIOp3gj-17" target="0F34in-1d9MKDhHFFbDU-32">
          <mxGeometry relative="1" as="geometry" />
        </mxCell>
        <mxCell id="TDLvA_YiqEKy6rIOp3gj-17" value="Reservation" style="whiteSpace=wrap;html=1;align=center;fontSize=21;labelBackgroundColor=none;container=0;strokeWidth=2;" vertex="1" parent="1">
          <mxGeometry x="1588.0460870712416" y="856.5668202764978" width="159.04418250603973" height="64.0552995391705" as="geometry" />
        </mxCell>
        <mxCell id="Z_bIWVFWov2kq6kV5qWT-30" style="edgeStyle=orthogonalEdgeStyle;rounded=0;orthogonalLoop=1;jettySize=auto;html=1;entryX=1;entryY=0.5;entryDx=0;entryDy=0;exitX=0.5;exitY=0;exitDx=0;exitDy=0;endArrow=none;endFill=0;fontSize=21;strokeWidth=2;" edge="1" parent="1" source="TDLvA_YiqEKy6rIOp3gj-18" target="0F34in-1d9MKDhHFFbDU-7">
          <mxGeometry relative="1" as="geometry">
            <mxPoint x="951.8693570470823" y="1144.8156682027652" as="sourcePoint" />
          </mxGeometry>
        </mxCell>
        <mxCell id="TDLvA_YiqEKy6rIOp3gj-18" value="Facility" style="whiteSpace=wrap;html=1;align=center;fontSize=21;labelBackgroundColor=none;container=0;strokeWidth=2;" vertex="1" parent="1">
          <mxGeometry x="538.3544825313791" y="1240.898617511521" width="159.04418250603973" height="64.0552995391705" as="geometry" />
        </mxCell>
        <mxCell id="TDLvA_YiqEKy6rIOp3gj-19" value="Payment" style="whiteSpace=wrap;html=1;align=center;fontSize=21;labelBackgroundColor=none;container=0;strokeWidth=2;" vertex="1" parent="1">
          <mxGeometry x="1762.9925965748653" y="1160.0033179723503" width="159.04418250603973" height="64.0552995391705" as="geometry" />
        </mxCell>
        <mxCell id="0F34in-1d9MKDhHFFbDU-28" value="" style="edgeStyle=orthogonalEdgeStyle;rounded=0;orthogonalLoop=1;jettySize=auto;html=1;endArrow=none;endFill=0;startArrow=ERoneToMany;startFill=0;fontSize=21;strokeWidth=2;" edge="1" parent="1" source="TDLvA_YiqEKy6rIOp3gj-20" target="0F34in-1d9MKDhHFFbDU-7">
          <mxGeometry relative="1" as="geometry" />
        </mxCell>
        <mxCell id="TDLvA_YiqEKy6rIOp3gj-20" value="Service" style="whiteSpace=wrap;html=1;align=center;fontSize=21;labelBackgroundColor=none;container=0;strokeWidth=2;" vertex="1" parent="1">
          <mxGeometry x="197.99993196845406" y="1176.8433179723502" width="159.04418250603973" height="64.0552995391705" as="geometry" />
        </mxCell>
        <mxCell id="TDLvA_YiqEKy6rIOp3gj-21" value="Staff" style="whiteSpace=wrap;html=1;align=center;fontSize=21;labelBackgroundColor=none;container=0;strokeWidth=2;" vertex="1" parent="1">
          <mxGeometry x="864.3950566687606" y="584.331797235023" width="159.04418250603973" height="64.0552995391705" as="geometry" />
        </mxCell>
        <mxCell id="Z_bIWVFWov2kq6kV5qWT-103" style="edgeStyle=orthogonalEdgeStyle;rounded=0;orthogonalLoop=1;jettySize=auto;html=1;endArrow=none;endFill=0;startArrow=ERoneToMany;startFill=0;fontSize=21;strokeWidth=2;" edge="1" parent="1" source="TDLvA_YiqEKy6rIOp3gj-22" target="Z_bIWVFWov2kq6kV5qWT-102">
          <mxGeometry relative="1" as="geometry" />
        </mxCell>
        <mxCell id="TDLvA_YiqEKy6rIOp3gj-22" value="Review" style="whiteSpace=wrap;html=1;align=center;fontSize=21;labelBackgroundColor=none;container=0;strokeWidth=2;" vertex="1" parent="1">
          <mxGeometry x="824.6340110422506" y="1144.8156682027652" width="159.04418250603973" height="64.0552995391705" as="geometry" />
        </mxCell>
        <mxCell id="m9ahBI0SQcME8ibK62GL-1" style="edgeStyle=orthogonalEdgeStyle;rounded=0;orthogonalLoop=1;jettySize=auto;html=1;exitX=0.5;exitY=0;exitDx=0;exitDy=0;entryX=0.5;entryY=1;entryDx=0;entryDy=0;endArrow=ERoneToMany;endFill=0;fontSize=21;strokeWidth=2;" edge="1" parent="1" source="TDLvA_YiqEKy6rIOp3gj-23" target="TDLvA_YiqEKy6rIOp3gj-21">
          <mxGeometry relative="1" as="geometry" />
        </mxCell>
        <mxCell id="TDLvA_YiqEKy6rIOp3gj-23" value="has" style="shape=rhombus;perimeter=rhombusPerimeter;whiteSpace=wrap;html=1;align=center;labelBackgroundColor=none;container=0;fontSize=21;strokeWidth=2;" vertex="1" parent="1">
          <mxGeometry x="848.4906384181567" y="718.8479262672811" width="190.8530190072477" height="96.08294930875576" as="geometry" />
        </mxCell>
        <mxCell id="0F34in-1d9MKDhHFFbDU-3" value="" style="edgeStyle=entityRelationEdgeStyle;fontSize=21;html=1;endArrow=ERmandOne;rounded=0;entryX=1;entryY=0.5;entryDx=0;entryDy=0;labelBackgroundColor=none;fontColor=default;strokeWidth=2;" edge="1" parent="1" source="TDLvA_YiqEKy6rIOp3gj-23" target="TDLvA_YiqEKy6rIOp3gj-14">
          <mxGeometry width="100" height="100" relative="1" as="geometry">
            <mxPoint x="832.5862201675527" y="952.6497695852536" as="sourcePoint" />
            <mxPoint x="991.6304026735922" y="792.5115207373273" as="targetPoint" />
            <Array as="points">
              <mxPoint x="753.0641289145328" y="776.4976958525345" />
            </Array>
          </mxGeometry>
        </mxCell>
        <mxCell id="0F34in-1d9MKDhHFFbDU-4" value="" style="edgeStyle=entityRelationEdgeStyle;fontSize=21;html=1;endArrow=ERoneToMany;rounded=0;entryX=0;entryY=0.5;entryDx=0;entryDy=0;exitX=1;exitY=0.5;exitDx=0;exitDy=0;labelBackgroundColor=none;fontColor=default;strokeWidth=2;" edge="1" parent="1" source="TDLvA_YiqEKy6rIOp3gj-23" target="TDLvA_YiqEKy6rIOp3gj-15">
          <mxGeometry width="100" height="100" relative="1" as="geometry">
            <mxPoint x="912.1083114205724" y="1000.6912442396314" as="sourcePoint" />
            <mxPoint x="1071.1524939266124" y="840.552995391705" as="targetPoint" />
          </mxGeometry>
        </mxCell>
        <mxCell id="0F34in-1d9MKDhHFFbDU-25" value="" style="edgeStyle=orthogonalEdgeStyle;rounded=0;orthogonalLoop=1;jettySize=auto;html=1;endArrow=ERoneToMany;endFill=0;exitX=0.5;exitY=0;exitDx=0;exitDy=0;fontSize=21;strokeWidth=2;" edge="1" parent="1" source="0F34in-1d9MKDhHFFbDU-7" target="TDLvA_YiqEKy6rIOp3gj-14">
          <mxGeometry relative="1" as="geometry" />
        </mxCell>
        <mxCell id="0F34in-1d9MKDhHFFbDU-7" value="has" style="shape=rhombus;perimeter=rhombusPerimeter;whiteSpace=wrap;html=1;align=center;labelBackgroundColor=none;container=0;fontSize=21;strokeWidth=2;" vertex="1" parent="1">
          <mxGeometry x="341.13969622388987" y="1016.705069124424" width="190.8530190072477" height="96.08294930875576" as="geometry" />
        </mxCell>
        <mxCell id="wfy0pwBhBruym8MugSsH-5" style="edgeStyle=orthogonalEdgeStyle;rounded=0;orthogonalLoop=1;jettySize=auto;html=1;entryX=0.5;entryY=1;entryDx=0;entryDy=0;endArrow=ERoneToMany;endFill=0;fontSize=21;strokeWidth=2;" edge="1" parent="1" source="0F34in-1d9MKDhHFFbDU-13" target="TDLvA_YiqEKy6rIOp3gj-17">
          <mxGeometry relative="1" as="geometry" />
        </mxCell>
        <mxCell id="0F34in-1d9MKDhHFFbDU-13" value="makes" style="shape=rhombus;perimeter=rhombusPerimeter;whiteSpace=wrap;html=1;align=center;container=0;fontSize=21;strokeWidth=2;" vertex="1" parent="1">
          <mxGeometry x="1309.7187676856718" y="984.6774193548387" width="190.8530190072477" height="96.08294930875576" as="geometry" />
        </mxCell>
        <mxCell id="Z_bIWVFWov2kq6kV5qWT-107" style="edgeStyle=orthogonalEdgeStyle;rounded=0;orthogonalLoop=1;jettySize=auto;html=1;exitX=0.5;exitY=0;exitDx=0;exitDy=0;entryX=0.5;entryY=1;entryDx=0;entryDy=0;endArrow=ERoneToMany;endFill=0;fontSize=21;strokeWidth=2;" edge="1" parent="1" source="0F34in-1d9MKDhHFFbDU-32" target="TDLvA_YiqEKy6rIOp3gj-15">
          <mxGeometry relative="1" as="geometry">
            <mxPoint x="1429.4696815725727" y="616.3594470046082" as="targetPoint" />
            <Array as="points">
              <mxPoint x="1158.626794304934" y="760.4838709677418" />
              <mxPoint x="1436.9541136905036" y="760.4838709677418" />
            </Array>
          </mxGeometry>
        </mxCell>
        <mxCell id="Z_bIWVFWov2kq6kV5qWT-109" style="edgeStyle=orthogonalEdgeStyle;rounded=0;orthogonalLoop=1;jettySize=auto;html=1;exitX=0;exitY=0.5;exitDx=0;exitDy=0;entryX=1;entryY=0.75;entryDx=0;entryDy=0;endArrow=ERone;endFill=0;fontSize=21;strokeWidth=2;" edge="1" parent="1" source="0F34in-1d9MKDhHFFbDU-32" target="TDLvA_YiqEKy6rIOp3gj-14">
          <mxGeometry relative="1" as="geometry" />
        </mxCell>
        <mxCell id="0F34in-1d9MKDhHFFbDU-32" value="for" style="shape=rhombus;perimeter=rhombusPerimeter;whiteSpace=wrap;html=1;align=center;labelBackgroundColor=none;container=0;fontSize=21;fontStyle=0;strokeWidth=2;" vertex="1" parent="1">
          <mxGeometry x="1063.2002848013103" y="840.552995391705" width="190.8530190072477" height="96.08294930875576" as="geometry" />
        </mxCell>
        <mxCell id="wfy0pwBhBruym8MugSsH-11" value="&lt;u style=&quot;font-size: 21px;&quot;&gt;StaffID&lt;/u&gt;" style="ellipse;whiteSpace=wrap;html=1;rotation=-5;container=0;fontSize=21;strokeWidth=2;" vertex="1" parent="1">
          <mxGeometry x="641.733201160305" y="392.1658986175115" width="95.42650950362385" height="48.04147465437788" as="geometry" />
        </mxCell>
        <mxCell id="wfy0pwBhBruym8MugSsH-12" value="StaffName" style="ellipse;whiteSpace=wrap;html=1;rotation=0;container=0;fontSize=21;strokeWidth=2;" vertex="1" parent="1">
          <mxGeometry x="824.6340110422506" y="312.0967741935484" width="127.2353460048318" height="48.04147465437788" as="geometry" />
        </mxCell>
        <mxCell id="Z_bIWVFWov2kq6kV5qWT-2" value="JobPosition" style="ellipse;whiteSpace=wrap;html=1;rotation=5;container=0;fontSize=21;strokeWidth=2;" vertex="1" parent="1">
          <mxGeometry x="1023.4392391748002" y="344.1244239631336" width="127.2353460048318" height="48.04147465437788" as="geometry" />
        </mxCell>
        <mxCell id="Z_bIWVFWov2kq6kV5qWT-3" value="PhoneNo" style="ellipse;whiteSpace=wrap;html=1;rotation=0;container=0;fontSize=21;strokeWidth=2;" vertex="1" parent="1">
          <mxGeometry x="697.3986650374189" y="280.0691244239631" width="127.2353460048318" height="48.04147465437788" as="geometry" />
        </mxCell>
        <mxCell id="Z_bIWVFWov2kq6kV5qWT-4" value="Email" style="ellipse;whiteSpace=wrap;html=1;container=0;fontSize=21;strokeWidth=2;" vertex="1" parent="1">
          <mxGeometry x="625.828782909701" y="328.110599078341" width="127.2353460048318" height="48.04147465437788" as="geometry" />
        </mxCell>
        <mxCell id="Z_bIWVFWov2kq6kV5qWT-5" value="HireDate" style="ellipse;whiteSpace=wrap;html=1;rotation=0;container=0;fontSize=21;strokeWidth=2;" vertex="1" parent="1">
          <mxGeometry x="951.8693570470823" y="280.0691244239631" width="127.2353460048318" height="48.04147465437788" as="geometry" />
        </mxCell>
        <mxCell id="Z_bIWVFWov2kq6kV5qWT-6" value="Salary" style="ellipse;whiteSpace=wrap;html=1;rotation=0;container=0;fontSize=21;strokeWidth=2;" vertex="1" parent="1">
          <mxGeometry x="1063.2002848013103" y="408.1797235023041" width="127.2353460048318" height="48.04147465437788" as="geometry" />
        </mxCell>
        <mxCell id="Z_bIWVFWov2kq6kV5qWT-12" value="" style="endArrow=none;html=1;rounded=0;entryX=0.345;entryY=0.96;entryDx=0;entryDy=0;entryPerimeter=0;exitX=0.5;exitY=0;exitDx=0;exitDy=0;fontSize=21;strokeWidth=2;" edge="1" parent="1" source="TDLvA_YiqEKy6rIOp3gj-21" target="Z_bIWVFWov2kq6kV5qWT-6">
          <mxGeometry width="50" height="50" relative="1" as="geometry">
            <mxPoint x="999.5826117988943" y="616.3594470046082" as="sourcePoint" />
            <mxPoint x="1079.104703051914" y="536.2903225806451" as="targetPoint" />
          </mxGeometry>
        </mxCell>
        <mxCell id="Z_bIWVFWov2kq6kV5qWT-13" value="" style="endArrow=none;html=1;rounded=0;entryX=0;entryY=1;entryDx=0;entryDy=0;exitX=0.5;exitY=0;exitDx=0;exitDy=0;fontSize=21;strokeWidth=2;" edge="1" parent="1" source="TDLvA_YiqEKy6rIOp3gj-21" target="Z_bIWVFWov2kq6kV5qWT-2">
          <mxGeometry width="50" height="50" relative="1" as="geometry">
            <mxPoint x="1015.4870300494982" y="632.3732718894009" as="sourcePoint" />
            <mxPoint x="1107.7326559030014" y="534.6889400921659" as="targetPoint" />
          </mxGeometry>
        </mxCell>
        <mxCell id="Z_bIWVFWov2kq6kV5qWT-14" value="" style="endArrow=none;html=1;rounded=0;entryX=0;entryY=1;entryDx=0;entryDy=0;exitX=0.5;exitY=0;exitDx=0;exitDy=0;fontSize=21;strokeWidth=2;" edge="1" parent="1" source="TDLvA_YiqEKy6rIOp3gj-21" target="Z_bIWVFWov2kq6kV5qWT-5">
          <mxGeometry width="50" height="50" relative="1" as="geometry">
            <mxPoint x="945.5075897468407" y="616.3594470046082" as="sourcePoint" />
            <mxPoint x="1080.6951448769746" y="461.0253456221198" as="targetPoint" />
          </mxGeometry>
        </mxCell>
        <mxCell id="Z_bIWVFWov2kq6kV5qWT-17" value="" style="endArrow=none;html=1;rounded=0;entryX=1;entryY=1;entryDx=0;entryDy=0;exitX=0.5;exitY=0;exitDx=0;exitDy=0;fontSize=21;strokeWidth=2;" edge="1" parent="1" source="TDLvA_YiqEKy6rIOp3gj-21" target="Z_bIWVFWov2kq6kV5qWT-4">
          <mxGeometry width="50" height="50" relative="1" as="geometry">
            <mxPoint x="896.2038931699684" y="606.7511520737328" as="sourcePoint" />
            <mxPoint x="931.1936133212972" y="376.1520737327189" as="targetPoint" />
          </mxGeometry>
        </mxCell>
        <mxCell id="Z_bIWVFWov2kq6kV5qWT-18" value="" style="endArrow=none;html=1;rounded=0;entryX=0.645;entryY=0.984;entryDx=0;entryDy=0;exitX=0.5;exitY=0;exitDx=0;exitDy=0;entryPerimeter=0;fontSize=21;strokeWidth=2;" edge="1" parent="1" source="TDLvA_YiqEKy6rIOp3gj-21" target="Z_bIWVFWov2kq6kV5qWT-3">
          <mxGeometry width="50" height="50" relative="1" as="geometry">
            <mxPoint x="864.3950566687606" y="664.4009216589861" as="sourcePoint" />
            <mxPoint x="851.6715220682773" y="424.1935483870968" as="targetPoint" />
          </mxGeometry>
        </mxCell>
        <mxCell id="Z_bIWVFWov2kq6kV5qWT-19" value="" style="endArrow=none;html=1;rounded=0;entryX=0.5;entryY=1;entryDx=0;entryDy=0;exitX=0.5;exitY=0;exitDx=0;exitDy=0;fontSize=21;strokeWidth=2;" edge="1" parent="1" source="TDLvA_YiqEKy6rIOp3gj-21" target="wfy0pwBhBruym8MugSsH-12">
          <mxGeometry width="50" height="50" relative="1" as="geometry">
            <mxPoint x="918.4700787208141" y="664.4009216589861" as="sourcePoint" />
            <mxPoint x="840.5384292928546" y="472.2350230414747" as="targetPoint" />
          </mxGeometry>
        </mxCell>
        <mxCell id="Z_bIWVFWov2kq6kV5qWT-20" value="" style="endArrow=none;html=1;rounded=0;entryX=0.5;entryY=1;entryDx=0;entryDy=0;exitX=0.5;exitY=0;exitDx=0;exitDy=0;fontSize=21;strokeWidth=2;" edge="1" parent="1" source="TDLvA_YiqEKy6rIOp3gj-21" target="wfy0pwBhBruym8MugSsH-11">
          <mxGeometry width="50" height="50" relative="1" as="geometry">
            <mxPoint x="864.3950566687606" y="688.4216589861751" as="sourcePoint" />
            <mxPoint x="799.1869418412842" y="552.3041474654378" as="targetPoint" />
          </mxGeometry>
        </mxCell>
        <mxCell id="Z_bIWVFWov2kq6kV5qWT-23" value="FirstName" style="ellipse;whiteSpace=wrap;html=1;rotation=0;container=0;fontSize=21;strokeWidth=2;" vertex="1" parent="1">
          <mxGeometry x="753.0641289145328" y="216.01382488479263" width="127.2353460048318" height="48.04147465437788" as="geometry" />
        </mxCell>
        <mxCell id="Z_bIWVFWov2kq6kV5qWT-24" value="LastName" style="ellipse;whiteSpace=wrap;html=1;rotation=0;container=0;fontSize=21;strokeWidth=2;" vertex="1" parent="1">
          <mxGeometry x="888.2516840446665" y="200" width="127.2353460048318" height="48.04147465437788" as="geometry" />
        </mxCell>
        <mxCell id="Z_bIWVFWov2kq6kV5qWT-25" value="" style="endArrow=none;html=1;rounded=0;entryX=0.5;entryY=1;entryDx=0;entryDy=0;exitX=0.5;exitY=0;exitDx=0;exitDy=0;fontSize=21;strokeWidth=2;" edge="1" parent="1" source="wfy0pwBhBruym8MugSsH-12" target="Z_bIWVFWov2kq6kV5qWT-23">
          <mxGeometry width="50" height="50" relative="1" as="geometry">
            <mxPoint x="810.3200346167071" y="552.3041474654378" as="sourcePoint" />
            <mxPoint x="808.7295927916467" y="313.6981566820277" as="targetPoint" />
          </mxGeometry>
        </mxCell>
        <mxCell id="Z_bIWVFWov2kq6kV5qWT-26" value="" style="endArrow=none;html=1;rounded=0;entryX=0.5;entryY=1;entryDx=0;entryDy=0;exitX=0.5;exitY=0;exitDx=0;exitDy=0;fontSize=21;strokeWidth=2;" edge="1" parent="1" source="wfy0pwBhBruym8MugSsH-12" target="Z_bIWVFWov2kq6kV5qWT-24">
          <mxGeometry width="50" height="50" relative="1" as="geometry">
            <mxPoint x="899.3847768200893" y="350.5299539170507" as="sourcePoint" />
            <mxPoint x="888.2516840446665" y="328.110599078341" as="targetPoint" />
          </mxGeometry>
        </mxCell>
        <mxCell id="Z_bIWVFWov2kq6kV5qWT-29" style="edgeStyle=orthogonalEdgeStyle;rounded=0;orthogonalLoop=1;jettySize=auto;html=1;exitX=0.5;exitY=1;exitDx=0;exitDy=0;fontSize=21;strokeWidth=2;" edge="1" parent="1" source="TDLvA_YiqEKy6rIOp3gj-18" target="TDLvA_YiqEKy6rIOp3gj-18">
          <mxGeometry relative="1" as="geometry" />
        </mxCell>
        <mxCell id="Z_bIWVFWov2kq6kV5qWT-31" value="&lt;u style=&quot;font-size: 21px;&quot;&gt;HotelID&lt;/u&gt;" style="ellipse;whiteSpace=wrap;html=1;rotation=-5;container=0;fontSize=21;strokeWidth=2;" vertex="1" parent="1">
          <mxGeometry x="320.07" y="871.69" width="111.79" height="49.02" as="geometry" />
        </mxCell>
        <mxCell id="Z_bIWVFWov2kq6kV5qWT-32" value="City" style="ellipse;whiteSpace=wrap;html=1;rotation=0;container=0;fontSize=21;strokeWidth=2;" vertex="1" parent="1">
          <mxGeometry x="304.55953424750066" y="696.4285714285713" width="127.2353460048318" height="48.04147465437788" as="geometry" />
        </mxCell>
        <mxCell id="Z_bIWVFWov2kq6kV5qWT-33" value="PhoneNo" style="ellipse;whiteSpace=wrap;html=1;rotation=0;container=0;fontSize=21;strokeWidth=2;" vertex="1" parent="1">
          <mxGeometry x="522.4500642807751" y="472.2350230414747" width="127.2353460048318" height="48.04147465437788" as="geometry" />
        </mxCell>
        <mxCell id="Z_bIWVFWov2kq6kV5qWT-34" value="Address" style="ellipse;whiteSpace=wrap;html=1;rotation=0;container=0;fontSize=21;strokeWidth=2;" vertex="1" parent="1">
          <mxGeometry x="283.8837905217156" y="760.4838709677418" width="127.2353460048318" height="48.04147465437788" as="geometry" />
        </mxCell>
        <mxCell id="Z_bIWVFWov2kq6kV5qWT-35" value="Name" style="ellipse;whiteSpace=wrap;html=1;container=0;fontSize=21;strokeWidth=2;" vertex="1" parent="1">
          <mxGeometry x="304.55953424750066" y="814.9308755760368" width="127.2353460048318" height="48.04147465437788" as="geometry" />
        </mxCell>
        <mxCell id="Z_bIWVFWov2kq6kV5qWT-36" value="PostalCode" style="ellipse;whiteSpace=wrap;html=1;rotation=0;container=0;fontSize=21;strokeWidth=2;" vertex="1" parent="1">
          <mxGeometry x="450.88018215305726" y="520.2764976958525" width="127.2353460048318" height="48.04147465437788" as="geometry" />
        </mxCell>
        <mxCell id="Z_bIWVFWov2kq6kV5qWT-37" value="Email" style="ellipse;whiteSpace=wrap;html=1;rotation=0;container=0;fontSize=21;strokeWidth=2;" vertex="1" parent="1">
          <mxGeometry x="609.9243646590971" y="520.2764976958525" width="127.2353460048318" height="48.04147465437788" as="geometry" />
        </mxCell>
        <mxCell id="Z_bIWVFWov2kq6kV5qWT-38" value="State" style="ellipse;whiteSpace=wrap;html=1;rotation=0;container=0;fontSize=21;strokeWidth=2;" vertex="1" parent="1">
          <mxGeometry x="320.4639524981047" y="632.3732718894009" width="127.2353460048318" height="48.04147465437788" as="geometry" />
        </mxCell>
        <mxCell id="Z_bIWVFWov2kq6kV5qWT-39" value="Country" style="ellipse;whiteSpace=wrap;html=1;rotation=-5;container=0;fontSize=21;strokeWidth=2;" vertex="1" parent="1">
          <mxGeometry x="372.9485327250978" y="568.3179723502305" width="127.2353460048318" height="48.04147465437788" as="geometry" />
        </mxCell>
        <mxCell id="Z_bIWVFWov2kq6kV5qWT-46" value="" style="endArrow=none;html=1;rounded=0;exitX=1;exitY=0.5;exitDx=0;exitDy=0;entryX=0;entryY=0.5;entryDx=0;entryDy=0;fontSize=21;strokeWidth=2;" edge="1" parent="1" source="Z_bIWVFWov2kq6kV5qWT-31" target="TDLvA_YiqEKy6rIOp3gj-14">
          <mxGeometry width="50" height="50" relative="1" as="geometry">
            <mxPoint x="442.9279730277553" y="696.4285714285713" as="sourcePoint" />
            <mxPoint x="522.4500642807751" y="616.3594470046082" as="targetPoint" />
          </mxGeometry>
        </mxCell>
        <mxCell id="Z_bIWVFWov2kq6kV5qWT-47" value="" style="endArrow=none;html=1;rounded=0;exitX=1;exitY=0.5;exitDx=0;exitDy=0;entryX=0;entryY=0.5;entryDx=0;entryDy=0;fontSize=21;strokeWidth=2;" edge="1" parent="1" source="Z_bIWVFWov2kq6kV5qWT-35" target="TDLvA_YiqEKy6rIOp3gj-14">
          <mxGeometry width="50" height="50" relative="1" as="geometry">
            <mxPoint x="323.64483614822547" y="763.6866359447005" as="sourcePoint" />
            <mxPoint x="594.0199464084931" y="872.5806451612902" as="targetPoint" />
          </mxGeometry>
        </mxCell>
        <mxCell id="Z_bIWVFWov2kq6kV5qWT-50" value="" style="endArrow=none;html=1;rounded=0;exitX=1;exitY=1;exitDx=0;exitDy=0;entryX=0.5;entryY=0;entryDx=0;entryDy=0;fontSize=21;strokeWidth=2;" edge="1" parent="1" source="Z_bIWVFWov2kq6kV5qWT-34" target="TDLvA_YiqEKy6rIOp3gj-14">
          <mxGeometry width="50" height="50" relative="1" as="geometry">
            <mxPoint x="331.59704527352744" y="704.4354838709678" as="sourcePoint" />
            <mxPoint x="609.9243646590971" y="872.5806451612902" as="targetPoint" />
          </mxGeometry>
        </mxCell>
        <mxCell id="Z_bIWVFWov2kq6kV5qWT-51" value="" style="endArrow=none;html=1;rounded=0;exitX=1;exitY=1;exitDx=0;exitDy=0;entryX=0.5;entryY=0;entryDx=0;entryDy=0;fontSize=21;strokeWidth=2;" edge="1" parent="1" source="Z_bIWVFWov2kq6kV5qWT-32" target="TDLvA_YiqEKy6rIOp3gj-14">
          <mxGeometry width="50" height="50" relative="1" as="geometry">
            <mxPoint x="358.6345562995542" y="605.1497695852535" as="sourcePoint" />
            <mxPoint x="635.3714338600633" y="797.3156682027651" as="targetPoint" />
          </mxGeometry>
        </mxCell>
        <mxCell id="Z_bIWVFWov2kq6kV5qWT-52" value="" style="endArrow=none;html=1;rounded=0;exitX=1;exitY=1;exitDx=0;exitDy=0;entryX=0.5;entryY=0;entryDx=0;entryDy=0;fontSize=21;strokeWidth=2;" edge="1" parent="1" source="Z_bIWVFWov2kq6kV5qWT-38" target="TDLvA_YiqEKy6rIOp3gj-14">
          <mxGeometry width="50" height="50" relative="1" as="geometry">
            <mxPoint x="374.5389745501582" y="544.2972350230415" as="sourcePoint" />
            <mxPoint x="651.2758521106673" y="736.463133640553" as="targetPoint" />
          </mxGeometry>
        </mxCell>
        <mxCell id="Z_bIWVFWov2kq6kV5qWT-53" value="" style="endArrow=none;html=1;rounded=0;exitX=0.5;exitY=1;exitDx=0;exitDy=0;entryX=0.5;entryY=0;entryDx=0;entryDy=0;fontSize=21;strokeWidth=2;" edge="1" parent="1" source="Z_bIWVFWov2kq6kV5qWT-39" target="TDLvA_YiqEKy6rIOp3gj-14">
          <mxGeometry width="50" height="50" relative="1" as="geometry">
            <mxPoint x="446.1088566778761" y="507.4654377880184" as="sourcePoint" />
            <mxPoint x="722.8457342383853" y="699.63133640553" as="targetPoint" />
          </mxGeometry>
        </mxCell>
        <mxCell id="Z_bIWVFWov2kq6kV5qWT-54" value="" style="endArrow=none;html=1;rounded=0;exitX=0.5;exitY=1;exitDx=0;exitDy=0;entryX=0.5;entryY=0;entryDx=0;entryDy=0;fontSize=21;strokeWidth=2;" edge="1" parent="1" source="Z_bIWVFWov2kq6kV5qWT-36" target="TDLvA_YiqEKy6rIOp3gj-14">
          <mxGeometry width="50" height="50" relative="1" as="geometry">
            <mxPoint x="477.91769317908404" y="523.479262672811" as="sourcePoint" />
            <mxPoint x="633.780992035003" y="840.552995391705" as="targetPoint" />
          </mxGeometry>
        </mxCell>
        <mxCell id="Z_bIWVFWov2kq6kV5qWT-55" value="NoOfRooms" style="ellipse;whiteSpace=wrap;html=1;rotation=0;container=0;fontSize=21;strokeWidth=2;" vertex="1" parent="1">
          <mxGeometry x="697.4" y="568.32" width="142.6" height="51.68" as="geometry" />
        </mxCell>
        <mxCell id="Z_bIWVFWov2kq6kV5qWT-56" value="" style="endArrow=none;html=1;rounded=0;exitX=0.5;exitY=1;exitDx=0;exitDy=0;entryX=0.5;entryY=0;entryDx=0;entryDy=0;fontSize=21;strokeWidth=2;" edge="1" parent="1" source="Z_bIWVFWov2kq6kV5qWT-33" target="TDLvA_YiqEKy6rIOp3gj-14">
          <mxGeometry width="50" height="50" relative="1" as="geometry">
            <mxPoint x="535.1735988812583" y="545.8986175115208" as="sourcePoint" />
            <mxPoint x="689.4464559121169" y="856.5668202764978" as="targetPoint" />
          </mxGeometry>
        </mxCell>
        <mxCell id="Z_bIWVFWov2kq6kV5qWT-57" value="" style="endArrow=none;html=1;rounded=0;exitX=0.5;exitY=1;exitDx=0;exitDy=0;entryX=0.5;entryY=0;entryDx=0;entryDy=0;fontSize=21;strokeWidth=2;" edge="1" parent="1" source="Z_bIWVFWov2kq6kV5qWT-37" target="TDLvA_YiqEKy6rIOp3gj-14">
          <mxGeometry width="50" height="50" relative="1" as="geometry">
            <mxPoint x="600.3817137087347" y="590.7373271889401" as="sourcePoint" />
            <mxPoint x="689.4464559121169" y="856.5668202764978" as="targetPoint" />
          </mxGeometry>
        </mxCell>
        <mxCell id="Z_bIWVFWov2kq6kV5qWT-58" value="" style="endArrow=none;html=1;rounded=0;exitX=0.5;exitY=1;exitDx=0;exitDy=0;entryX=0.5;entryY=0;entryDx=0;entryDy=0;fontSize=21;strokeWidth=2;" edge="1" parent="1" source="Z_bIWVFWov2kq6kV5qWT-55" target="TDLvA_YiqEKy6rIOp3gj-14">
          <mxGeometry width="50" height="50" relative="1" as="geometry">
            <mxPoint x="652.8662939357278" y="641.9815668202765" as="sourcePoint" />
            <mxPoint x="729.2075015386268" y="856.5668202764978" as="targetPoint" />
          </mxGeometry>
        </mxCell>
        <mxCell id="Z_bIWVFWov2kq6kV5qWT-59" value="&lt;u style=&quot;font-size: 21px;&quot;&gt;RoomID&lt;/u&gt;" style="ellipse;whiteSpace=wrap;html=1;rotation=-5;container=0;fontSize=21;strokeWidth=2;" vertex="1" parent="1">
          <mxGeometry x="1222.2444673073499" y="360.13824884792626" width="111.33092775422782" height="48.04147465437788" as="geometry" />
        </mxCell>
        <mxCell id="Z_bIWVFWov2kq6kV5qWT-60" value="RoomType" style="ellipse;whiteSpace=wrap;html=1;rotation=0;container=0;fontSize=21;strokeWidth=2;" vertex="1" parent="1">
          <mxGeometry x="1357.4320224374837" y="248.04147465437788" width="127.2353460048318" height="48.04147465437788" as="geometry" />
        </mxCell>
        <mxCell id="Z_bIWVFWov2kq6kV5qWT-61" value="RoomNo" style="ellipse;whiteSpace=wrap;html=1;rotation=0;container=0;fontSize=21;strokeWidth=2;" vertex="1" parent="1">
          <mxGeometry x="1254.053303808558" y="296.08294930875576" width="127.2353460048318" height="48.04147465437788" as="geometry" />
        </mxCell>
        <mxCell id="Z_bIWVFWov2kq6kV5qWT-63" value="BedType" style="ellipse;whiteSpace=wrap;html=1;rotation=0;container=0;fontSize=21;strokeWidth=2;" vertex="1" parent="1">
          <mxGeometry x="1460.8107410664095" y="200" width="127.2353460048318" height="48.04147465437788" as="geometry" />
        </mxCell>
        <mxCell id="aSgr7wITuuQFNg00ZJ3c-2" value="" style="edgeStyle=orthogonalEdgeStyle;rounded=0;orthogonalLoop=1;jettySize=auto;html=1;strokeWidth=2;" edge="1" parent="1" source="Z_bIWVFWov2kq6kV5qWT-64" target="Z_bIWVFWov2kq6kV5qWT-65">
          <mxGeometry relative="1" as="geometry" />
        </mxCell>
        <mxCell id="Z_bIWVFWov2kq6kV5qWT-64" value="PricePerNight" style="ellipse;whiteSpace=wrap;html=1;rotation=0;container=0;fontSize=21;strokeWidth=2;" vertex="1" parent="1">
          <mxGeometry x="1556.24" y="238.04" width="153.76" height="51.96" as="geometry" />
        </mxCell>
        <mxCell id="Z_bIWVFWov2kq6kV5qWT-65" value="AvailabilityStatus" style="ellipse;whiteSpace=wrap;html=1;rotation=0;container=0;fontSize=21;strokeWidth=2;" vertex="1" parent="1">
          <mxGeometry x="1635.7593418230533" y="296.08294930875576" width="166.9963916313417" height="48.04147465437788" as="geometry" />
        </mxCell>
        <mxCell id="Z_bIWVFWov2kq6kV5qWT-66" value="" style="endArrow=none;html=1;rounded=0;entryX=0.5;entryY=1;entryDx=0;entryDy=0;exitX=0.5;exitY=0;exitDx=0;exitDy=0;fontSize=21;strokeWidth=2;" edge="1" parent="1" source="TDLvA_YiqEKy6rIOp3gj-15" target="Z_bIWVFWov2kq6kV5qWT-59">
          <mxGeometry width="50" height="50" relative="1" as="geometry">
            <mxPoint x="1436.9541136905036" y="536.2903225806451" as="sourcePoint" />
            <mxPoint x="1126.8179578037261" y="760.4838709677418" as="targetPoint" />
          </mxGeometry>
        </mxCell>
        <mxCell id="Z_bIWVFWov2kq6kV5qWT-67" value="" style="endArrow=none;html=1;rounded=0;exitX=0.5;exitY=0;exitDx=0;exitDy=0;entryX=1;entryY=1;entryDx=0;entryDy=0;fontSize=21;strokeWidth=2;" edge="1" parent="1" source="TDLvA_YiqEKy6rIOp3gj-15" target="Z_bIWVFWov2kq6kV5qWT-61">
          <mxGeometry width="50" height="50" relative="1" as="geometry">
            <mxPoint x="1333.5753950615776" y="712.442396313364" as="sourcePoint" />
            <mxPoint x="1303.3570003854302" y="616.3594470046082" as="targetPoint" />
          </mxGeometry>
        </mxCell>
        <mxCell id="Z_bIWVFWov2kq6kV5qWT-69" value="" style="endArrow=none;html=1;rounded=0;entryX=0.5;entryY=1;entryDx=0;entryDy=0;exitX=0.5;exitY=0;exitDx=0;exitDy=0;fontSize=21;strokeWidth=2;" edge="1" parent="1" source="TDLvA_YiqEKy6rIOp3gj-15" target="Z_bIWVFWov2kq6kV5qWT-60">
          <mxGeometry width="50" height="50" relative="1" as="geometry">
            <mxPoint x="1373.3364406880878" y="680.4147465437788" as="sourcePoint" />
            <mxPoint x="1371.7459988630271" y="553.905529953917" as="targetPoint" />
          </mxGeometry>
        </mxCell>
        <mxCell id="Z_bIWVFWov2kq6kV5qWT-70" value="" style="endArrow=none;html=1;rounded=0;exitX=0.5;exitY=0;exitDx=0;exitDy=0;entryX=0.5;entryY=1;entryDx=0;entryDy=0;fontSize=21;strokeWidth=2;" edge="1" parent="1" source="TDLvA_YiqEKy6rIOp3gj-15" target="Z_bIWVFWov2kq6kV5qWT-63">
          <mxGeometry width="50" height="50" relative="1" as="geometry">
            <mxPoint x="1389.2408589386919" y="728.4562211981566" as="sourcePoint" />
            <mxPoint x="1387.6504171136312" y="569.9193548387098" as="targetPoint" />
          </mxGeometry>
        </mxCell>
        <mxCell id="Z_bIWVFWov2kq6kV5qWT-71" value="" style="endArrow=none;html=1;rounded=0;exitX=0.5;exitY=0;exitDx=0;exitDy=0;entryX=0.5;entryY=1;entryDx=0;entryDy=0;fontSize=21;strokeWidth=2;" edge="1" parent="1" source="TDLvA_YiqEKy6rIOp3gj-15" target="Z_bIWVFWov2kq6kV5qWT-64">
          <mxGeometry width="50" height="50" relative="1" as="geometry">
            <mxPoint x="1485.4625893548455" y="710.8410138248848" as="sourcePoint" />
            <mxPoint x="1483.8721475297853" y="552.3041474654378" as="targetPoint" />
          </mxGeometry>
        </mxCell>
        <mxCell id="Z_bIWVFWov2kq6kV5qWT-72" value="" style="endArrow=none;html=1;rounded=0;exitX=1;exitY=0.5;exitDx=0;exitDy=0;entryX=0;entryY=0.5;entryDx=0;entryDy=0;fontSize=21;strokeWidth=2;" edge="1" parent="1" source="TDLvA_YiqEKy6rIOp3gj-19" target="Z_bIWVFWov2kq6kV5qWT-117">
          <mxGeometry width="50" height="50" relative="1" as="geometry">
            <mxPoint x="1894.26975606837" y="1256.9124423963133" as="sourcePoint" />
            <mxPoint x="2176.573180016591" y="1064.7465437788019" as="targetPoint" />
          </mxGeometry>
        </mxCell>
        <mxCell id="Z_bIWVFWov2kq6kV5qWT-75" value="" style="edgeStyle=orthogonalEdgeStyle;rounded=0;orthogonalLoop=1;jettySize=auto;html=1;endArrow=ERmandOne;endFill=0;entryX=0;entryY=0.5;entryDx=0;entryDy=0;fontSize=21;strokeWidth=2;" edge="1" parent="1" source="Z_bIWVFWov2kq6kV5qWT-74" target="TDLvA_YiqEKy6rIOp3gj-16">
          <mxGeometry relative="1" as="geometry" />
        </mxCell>
        <mxCell id="Z_bIWVFWov2kq6kV5qWT-76" style="edgeStyle=orthogonalEdgeStyle;rounded=0;orthogonalLoop=1;jettySize=auto;html=1;exitX=0;exitY=0.5;exitDx=0;exitDy=0;entryX=1;entryY=0.5;entryDx=0;entryDy=0;endArrow=ERmandOne;endFill=0;fontSize=21;strokeWidth=2;" edge="1" parent="1" source="Z_bIWVFWov2kq6kV5qWT-74" target="TDLvA_YiqEKy6rIOp3gj-22">
          <mxGeometry relative="1" as="geometry">
            <mxPoint x="991.6304026735922" y="1192.8571428571431" as="targetPoint" />
          </mxGeometry>
        </mxCell>
        <mxCell id="Z_bIWVFWov2kq6kV5qWT-74" value="give" style="shape=rhombus;perimeter=rhombusPerimeter;whiteSpace=wrap;html=1;align=center;labelBackgroundColor=none;container=0;fontSize=21;strokeWidth=2;" vertex="1" parent="1">
          <mxGeometry x="1063.2002848013103" y="1128.8018433179723" width="190.8530190072477" height="96.08294930875576" as="geometry" />
        </mxCell>
        <mxCell id="Z_bIWVFWov2kq6kV5qWT-77" value="&lt;u style=&quot;font-size: 21px;&quot;&gt;ServiceID&lt;/u&gt;" style="ellipse;whiteSpace=wrap;html=1;rotation=0;container=0;fontSize=21;strokeWidth=2;" vertex="1" parent="1">
          <mxGeometry x="60.34" y="1385.96" width="117.32" height="54.98" as="geometry" />
        </mxCell>
        <mxCell id="Z_bIWVFWov2kq6kV5qWT-78" value="ServiceName" style="ellipse;whiteSpace=wrap;html=1;container=0;fontSize=21;strokeWidth=2;" vertex="1" parent="1">
          <mxGeometry x="177.32" y="1417.05" width="142.68" height="52.95" as="geometry" />
        </mxCell>
        <mxCell id="Z_bIWVFWov2kq6kV5qWT-79" value="ServiceCost" style="ellipse;whiteSpace=wrap;html=1;rotation=0;container=0;fontSize=21;strokeWidth=2;" vertex="1" parent="1">
          <mxGeometry x="304.56" y="1380" width="135.44" height="50" as="geometry" />
        </mxCell>
        <mxCell id="Z_bIWVFWov2kq6kV5qWT-81" value="" style="endArrow=none;html=1;rounded=0;entryX=0.5;entryY=1;entryDx=0;entryDy=0;exitX=0.5;exitY=0;exitDx=0;exitDy=0;fontSize=21;strokeWidth=2;" edge="1" parent="1" source="Z_bIWVFWov2kq6kV5qWT-79" target="TDLvA_YiqEKy6rIOp3gj-20">
          <mxGeometry width="50" height="50" relative="1" as="geometry">
            <mxPoint x="956.6406825222635" y="1240.898617511521" as="sourcePoint" />
            <mxPoint x="1036.1627737752833" y="1160.8294930875577" as="targetPoint" />
            <Array as="points" />
          </mxGeometry>
        </mxCell>
        <mxCell id="Z_bIWVFWov2kq6kV5qWT-82" value="" style="endArrow=none;html=1;rounded=0;entryX=0.5;entryY=1;entryDx=0;entryDy=0;exitX=0.5;exitY=0;exitDx=0;exitDy=0;fontSize=21;strokeWidth=2;" edge="1" parent="1" source="Z_bIWVFWov2kq6kV5qWT-78" target="TDLvA_YiqEKy6rIOp3gj-20">
          <mxGeometry width="50" height="50" relative="1" as="geometry">
            <mxPoint x="638.5523175101841" y="1369.0092165898618" as="sourcePoint" />
            <mxPoint x="702.1699905126001" y="1272.926267281106" as="targetPoint" />
          </mxGeometry>
        </mxCell>
        <mxCell id="Z_bIWVFWov2kq6kV5qWT-83" value="" style="endArrow=none;html=1;rounded=0;entryX=0.5;entryY=1;entryDx=0;entryDy=0;exitX=1;exitY=0;exitDx=0;exitDy=0;fontSize=21;strokeWidth=2;" edge="1" parent="1" source="Z_bIWVFWov2kq6kV5qWT-77" target="TDLvA_YiqEKy6rIOp3gj-20">
          <mxGeometry width="50" height="50" relative="1" as="geometry">
            <mxPoint x="551.0780171318623" y="1336.9815668202764" as="sourcePoint" />
            <mxPoint x="638.5523175101841" y="1272.926267281106" as="targetPoint" />
          </mxGeometry>
        </mxCell>
        <mxCell id="Z_bIWVFWov2kq6kV5qWT-84" value="&lt;u style=&quot;font-size: 21px;&quot;&gt;FacilityID&lt;/u&gt;" style="ellipse;whiteSpace=wrap;html=1;rotation=0;container=0;fontSize=21;strokeWidth=2;" vertex="1" parent="1">
          <mxGeometry x="450" y="1401.04" width="108.24" height="48.96" as="geometry" />
        </mxCell>
        <mxCell id="Z_bIWVFWov2kq6kV5qWT-85" value="FacilityName" style="ellipse;whiteSpace=wrap;html=1;container=0;fontSize=21;strokeWidth=2;" vertex="1" parent="1">
          <mxGeometry x="542.33" y="1437.87" width="137.67" height="52.13" as="geometry" />
        </mxCell>
        <mxCell id="Z_bIWVFWov2kq6kV5qWT-86" value="Description" style="ellipse;whiteSpace=wrap;html=1;rotation=0;container=0;fontSize=21;strokeWidth=2;" vertex="1" parent="1">
          <mxGeometry x="645.7093057229558" y="1401.036866359447" width="127.2353460048318" height="48.04147465437788" as="geometry" />
        </mxCell>
        <mxCell id="Z_bIWVFWov2kq6kV5qWT-87" value="" style="endArrow=none;html=1;rounded=0;entryX=0.5;entryY=1;entryDx=0;entryDy=0;exitX=0.5;exitY=0;exitDx=0;exitDy=0;fontSize=21;strokeWidth=2;" edge="1" parent="1" source="Z_bIWVFWov2kq6kV5qWT-84" target="TDLvA_YiqEKy6rIOp3gj-18">
          <mxGeometry width="50" height="50" relative="1" as="geometry">
            <mxPoint x="761.0163380398347" y="1352.995391705069" as="sourcePoint" />
            <mxPoint x="729.2075015386268" y="1240.898617511521" as="targetPoint" />
            <Array as="points" />
          </mxGeometry>
        </mxCell>
        <mxCell id="Z_bIWVFWov2kq6kV5qWT-88" value="" style="endArrow=none;html=1;rounded=0;exitX=0.5;exitY=0;exitDx=0;exitDy=0;entryX=0.5;entryY=1;entryDx=0;entryDy=0;fontSize=21;strokeWidth=2;" edge="1" parent="1" source="Z_bIWVFWov2kq6kV5qWT-85" target="TDLvA_YiqEKy6rIOp3gj-18">
          <mxGeometry width="50" height="50" relative="1" as="geometry">
            <mxPoint x="904.1561022952706" y="1364.2050691244242" as="sourcePoint" />
            <mxPoint x="967.7737752976864" y="1224.884792626728" as="targetPoint" />
            <Array as="points" />
          </mxGeometry>
        </mxCell>
        <mxCell id="Z_bIWVFWov2kq6kV5qWT-89" value="" style="endArrow=none;html=1;rounded=0;exitX=0.5;exitY=0;exitDx=0;exitDy=0;entryX=0.5;entryY=1;entryDx=0;entryDy=0;fontSize=21;strokeWidth=2;" edge="1" parent="1" source="Z_bIWVFWov2kq6kV5qWT-86" target="TDLvA_YiqEKy6rIOp3gj-18">
          <mxGeometry width="50" height="50" relative="1" as="geometry">
            <mxPoint x="999.5826117988943" y="1401.036866359447" as="sourcePoint" />
            <mxPoint x="967.7737752976864" y="1224.884792626728" as="targetPoint" />
            <Array as="points" />
          </mxGeometry>
        </mxCell>
        <mxCell id="Z_bIWVFWov2kq6kV5qWT-91" value="&lt;u style=&quot;font-size: 21px;&quot;&gt;ReviewID&lt;/u&gt;" style="ellipse;whiteSpace=wrap;html=1;rotation=0;container=0;fontSize=21;strokeWidth=2;" vertex="1" parent="1">
          <mxGeometry x="720" y="1272.93" width="112.59" height="47.07" as="geometry" />
        </mxCell>
        <mxCell id="Z_bIWVFWov2kq6kV5qWT-92" value="Rating" style="ellipse;whiteSpace=wrap;html=1;container=0;fontSize=21;strokeWidth=2;" vertex="1" parent="1">
          <mxGeometry x="761.0163380398347" y="1336.9815668202764" width="127.2353460048318" height="48.04147465437788" as="geometry" />
        </mxCell>
        <mxCell id="Z_bIWVFWov2kq6kV5qWT-93" value="Remarks" style="ellipse;whiteSpace=wrap;html=1;rotation=0;container=0;fontSize=21;strokeWidth=2;" vertex="1" parent="1">
          <mxGeometry x="853.2619638933378" y="1375.4147465437786" width="127.2353460048318" height="48.04147465437788" as="geometry" />
        </mxCell>
        <mxCell id="Z_bIWVFWov2kq6kV5qWT-94" value="ReviewDate" style="ellipse;whiteSpace=wrap;html=1;rotation=0;container=0;fontSize=21;strokeWidth=2;" vertex="1" parent="1">
          <mxGeometry x="940" y="1330" width="139.1" height="50" as="geometry" />
        </mxCell>
        <mxCell id="Z_bIWVFWov2kq6kV5qWT-97" value="" style="endArrow=none;html=1;rounded=0;exitX=0.5;exitY=0;exitDx=0;exitDy=0;entryX=0.5;entryY=1;entryDx=0;entryDy=0;fontSize=21;strokeWidth=2;" edge="1" parent="1" source="Z_bIWVFWov2kq6kV5qWT-92" target="TDLvA_YiqEKy6rIOp3gj-22">
          <mxGeometry width="50" height="50" relative="1" as="geometry">
            <mxPoint x="972.5451007728675" y="1320.9677419354837" as="sourcePoint" />
            <mxPoint x="880.2994749193646" y="1224.884792626728" as="targetPoint" />
            <Array as="points" />
          </mxGeometry>
        </mxCell>
        <mxCell id="Z_bIWVFWov2kq6kV5qWT-98" value="" style="endArrow=none;html=1;rounded=0;exitX=0.5;exitY=0;exitDx=0;exitDy=0;entryX=0.5;entryY=1;entryDx=0;entryDy=0;fontSize=21;strokeWidth=2;" edge="1" parent="1" source="Z_bIWVFWov2kq6kV5qWT-91" target="TDLvA_YiqEKy6rIOp3gj-22">
          <mxGeometry width="50" height="50" relative="1" as="geometry">
            <mxPoint x="900.9752186451497" y="1336.9815668202764" as="sourcePoint" />
            <mxPoint x="808.7295927916467" y="1240.898617511521" as="targetPoint" />
            <Array as="points" />
          </mxGeometry>
        </mxCell>
        <mxCell id="Z_bIWVFWov2kq6kV5qWT-99" value="" style="endArrow=none;html=1;rounded=0;exitX=0.5;exitY=0;exitDx=0;exitDy=0;entryX=0.5;entryY=1;entryDx=0;entryDy=0;fontSize=21;strokeWidth=2;" edge="1" parent="1" source="Z_bIWVFWov2kq6kV5qWT-94" target="TDLvA_YiqEKy6rIOp3gj-22">
          <mxGeometry width="50" height="50" relative="1" as="geometry">
            <mxPoint x="988.4495190234715" y="1336.9815668202764" as="sourcePoint" />
            <mxPoint x="896.2038931699684" y="1240.898617511521" as="targetPoint" />
            <Array as="points" />
          </mxGeometry>
        </mxCell>
        <mxCell id="Z_bIWVFWov2kq6kV5qWT-101" value="" style="endArrow=none;html=1;rounded=0;exitX=0.5;exitY=0;exitDx=0;exitDy=0;entryX=0.5;entryY=1;entryDx=0;entryDy=0;fontSize=21;strokeWidth=2;" edge="1" parent="1" source="Z_bIWVFWov2kq6kV5qWT-93" target="TDLvA_YiqEKy6rIOp3gj-22">
          <mxGeometry width="50" height="50" relative="1" as="geometry">
            <mxPoint x="840.5384292928546" y="1352.995391705069" as="sourcePoint" />
            <mxPoint x="904.1561022952706" y="1256.9124423963133" as="targetPoint" />
            <Array as="points" />
          </mxGeometry>
        </mxCell>
        <mxCell id="Z_bIWVFWov2kq6kV5qWT-104" style="edgeStyle=orthogonalEdgeStyle;rounded=0;orthogonalLoop=1;jettySize=auto;html=1;entryX=0.75;entryY=1;entryDx=0;entryDy=0;endArrow=ERone;endFill=0;fontSize=21;strokeWidth=2;" edge="1" parent="1" source="Z_bIWVFWov2kq6kV5qWT-102" target="TDLvA_YiqEKy6rIOp3gj-14">
          <mxGeometry relative="1" as="geometry" />
        </mxCell>
        <mxCell id="Z_bIWVFWov2kq6kV5qWT-102" value="for" style="shape=rhombus;perimeter=rhombusPerimeter;whiteSpace=wrap;html=1;align=center;labelBackgroundColor=none;container=0;fontSize=21;strokeWidth=2;" vertex="1" parent="1">
          <mxGeometry x="617.0813528718687" y="984.6774193548387" width="190.8530190072477" height="96.08294930875576" as="geometry" />
        </mxCell>
        <mxCell id="Z_bIWVFWov2kq6kV5qWT-110" value="&lt;u style=&quot;font-size: 21px;&quot;&gt;ReservationID&lt;/u&gt;" style="ellipse;whiteSpace=wrap;html=1;rotation=-5;container=0;fontSize=21;strokeWidth=2;" vertex="1" parent="1">
          <mxGeometry x="1560.62" y="488.83" width="157.16" height="61.75" as="geometry" />
        </mxCell>
        <mxCell id="Z_bIWVFWov2kq6kV5qWT-111" value="CheckOutDate" style="ellipse;whiteSpace=wrap;html=1;rotation=0;container=0;fontSize=21;strokeWidth=2;" vertex="1" parent="1">
          <mxGeometry x="1760" y="360.14" width="162.04" height="59.86" as="geometry" />
        </mxCell>
        <mxCell id="Z_bIWVFWov2kq6kV5qWT-112" value="CheckInDate" style="ellipse;whiteSpace=wrap;html=1;rotation=0;container=0;fontSize=21;strokeWidth=2;" vertex="1" parent="1">
          <mxGeometry x="1670" y="424.19" width="140.71" height="55.81" as="geometry" />
        </mxCell>
        <mxCell id="Z_bIWVFWov2kq6kV5qWT-113" value="NoOfPeople" style="ellipse;whiteSpace=wrap;html=1;rotation=0;container=0;fontSize=21;strokeWidth=2;" vertex="1" parent="1">
          <mxGeometry x="1858.48" y="424.19" width="131.52" height="55.81" as="geometry" />
        </mxCell>
        <mxCell id="Z_bIWVFWov2kq6kV5qWT-114" value="TotalPrice" style="ellipse;whiteSpace=wrap;html=1;rotation=15;container=0;fontSize=21;strokeWidth=2;" vertex="1" parent="1">
          <mxGeometry x="1969.73" y="392.56" width="130.25" height="47.83" as="geometry" />
        </mxCell>
        <mxCell id="Z_bIWVFWov2kq6kV5qWT-115" value="BookingDate" style="ellipse;whiteSpace=wrap;html=1;rotation=15;container=0;fontSize=21;strokeWidth=2;" vertex="1" parent="1">
          <mxGeometry x="2017.528997510551" y="472.2350230414747" width="166.9963916313417" height="48.04147465437788" as="geometry" />
        </mxCell>
        <mxCell id="Z_bIWVFWov2kq6kV5qWT-116" value="ReservationStatus" style="ellipse;whiteSpace=wrap;html=1;rotation=15;container=0;fontSize=21;strokeWidth=2;" vertex="1" parent="1">
          <mxGeometry x="2065.05" y="552.3" width="194.95" height="57.7" as="geometry" />
        </mxCell>
        <mxCell id="Z_bIWVFWov2kq6kV5qWT-117" value="&lt;u style=&quot;font-size: 21px;&quot;&gt;PaymentID&lt;/u&gt;" style="ellipse;whiteSpace=wrap;html=1;rotation=0;container=0;fontSize=21;strokeWidth=2;" vertex="1" parent="1">
          <mxGeometry x="2072.876373022653" y="943.6980414746542" width="143.13976425543578" height="48.04147465437788" as="geometry" />
        </mxCell>
        <mxCell id="Z_bIWVFWov2kq6kV5qWT-118" value="Amount" style="ellipse;whiteSpace=wrap;html=1;rotation=0;container=0;fontSize=21;strokeWidth=2;" vertex="1" parent="1">
          <mxGeometry x="2112.7010363221652" y="1247.9607142857142" width="103.3151009559234" height="49.642857142857146" as="geometry" />
        </mxCell>
        <mxCell id="Z_bIWVFWov2kq6kV5qWT-119" value="PaymentDate" style="ellipse;whiteSpace=wrap;html=1;rotation=0;container=0;fontSize=21;strokeWidth=2;" vertex="1" parent="1">
          <mxGeometry x="2081.019435166962" y="1055.7948156682023" width="143.07614658243335" height="49.642857142857146" as="geometry" />
        </mxCell>
        <mxCell id="Z_bIWVFWov2kq6kV5qWT-120" value="PaymentStatus" style="ellipse;whiteSpace=wrap;html=1;rotation=0;container=0;fontSize=21;strokeWidth=2;" vertex="1" parent="1">
          <mxGeometry x="2081.019435166962" y="1163.0874423963132" width="158.9805648330373" height="62.453917050691246" as="geometry" />
        </mxCell>
        <mxCell id="Z_bIWVFWov2kq6kV5qWT-121" value="PaymentMethod" style="ellipse;whiteSpace=wrap;html=1;rotation=0;container=0;fontSize=21;strokeWidth=2;" vertex="1" parent="1">
          <mxGeometry x="2065.1150169163584" y="1344.04366359447" width="174.8849830836413" height="64.0552995391705" as="geometry" />
        </mxCell>
        <mxCell id="Z_bIWVFWov2kq6kV5qWT-126" value="" style="endArrow=none;html=1;rounded=0;exitX=0.5;exitY=0;exitDx=0;exitDy=0;entryX=0.5;entryY=1;entryDx=0;entryDy=0;fontSize=21;strokeWidth=2;" edge="1" parent="1" source="TDLvA_YiqEKy6rIOp3gj-15" target="Z_bIWVFWov2kq6kV5qWT-65">
          <mxGeometry width="50" height="50" relative="1" as="geometry">
            <mxPoint x="1699.3770148254691" y="664.4009216589861" as="sourcePoint" />
            <mxPoint x="1981.6804387736897" y="472.2350230414747" as="targetPoint" />
          </mxGeometry>
        </mxCell>
        <mxCell id="Z_bIWVFWov2kq6kV5qWT-127" value="" style="endArrow=none;html=1;rounded=0;exitX=0.5;exitY=0;exitDx=0;exitDy=0;entryX=0.5;entryY=1;entryDx=0;entryDy=0;fontSize=21;strokeWidth=2;" edge="1" parent="1" source="Z_bIWVFWov2kq6kV5qWT-137" target="TDLvA_YiqEKy6rIOp3gj-16">
          <mxGeometry width="50" height="50" relative="1" as="geometry">
            <mxPoint x="1413.0974863145975" y="1433.865207373272" as="sourcePoint" />
            <mxPoint x="1695.4009102628183" y="1241.6993087557605" as="targetPoint" />
          </mxGeometry>
        </mxCell>
        <mxCell id="Z_bIWVFWov2kq6kV5qWT-128" value="" style="endArrow=none;html=1;rounded=0;exitX=1;exitY=0.5;exitDx=0;exitDy=0;entryX=0;entryY=0.5;entryDx=0;entryDy=0;fontSize=21;strokeWidth=2;" edge="1" parent="1" source="TDLvA_YiqEKy6rIOp3gj-19" target="Z_bIWVFWov2kq6kV5qWT-119">
          <mxGeometry width="50" height="50" relative="1" as="geometry">
            <mxPoint x="1890.2300338327168" y="1272.926267281106" as="sourcePoint" />
            <mxPoint x="2172.533457780937" y="1080.7603686635946" as="targetPoint" />
          </mxGeometry>
        </mxCell>
        <mxCell id="Z_bIWVFWov2kq6kV5qWT-129" value="" style="endArrow=none;html=1;rounded=0;exitX=1;exitY=0.5;exitDx=0;exitDy=0;entryX=0;entryY=0;entryDx=0;entryDy=0;fontSize=21;strokeWidth=2;" edge="1" parent="1" source="TDLvA_YiqEKy6rIOp3gj-19" target="Z_bIWVFWov2kq6kV5qWT-120">
          <mxGeometry width="50" height="50" relative="1" as="geometry">
            <mxPoint x="2271.999689520215" y="952.6497695852536" as="sourcePoint" />
            <mxPoint x="2554.303113468435" y="760.4838709677418" as="targetPoint" />
          </mxGeometry>
        </mxCell>
        <mxCell id="Z_bIWVFWov2kq6kV5qWT-130" value="" style="endArrow=none;html=1;rounded=0;exitX=1;exitY=0.5;exitDx=0;exitDy=0;entryX=0;entryY=0;entryDx=0;entryDy=0;fontSize=21;strokeWidth=2;" edge="1" parent="1" source="TDLvA_YiqEKy6rIOp3gj-19" target="Z_bIWVFWov2kq6kV5qWT-118">
          <mxGeometry width="50" height="50" relative="1" as="geometry">
            <mxPoint x="2287.904107770819" y="968.6635944700461" as="sourcePoint" />
            <mxPoint x="2570.207531719039" y="776.4976958525345" as="targetPoint" />
          </mxGeometry>
        </mxCell>
        <mxCell id="Z_bIWVFWov2kq6kV5qWT-131" value="" style="endArrow=none;html=1;rounded=0;exitX=1;exitY=0.5;exitDx=0;exitDy=0;entryX=0;entryY=0;entryDx=0;entryDy=0;fontSize=21;strokeWidth=2;" edge="1" parent="1" source="TDLvA_YiqEKy6rIOp3gj-19" target="Z_bIWVFWov2kq6kV5qWT-121">
          <mxGeometry width="50" height="50" relative="1" as="geometry">
            <mxPoint x="1560.2133551326845" y="1609.2165898617511" as="sourcePoint" />
            <mxPoint x="1842.516779080905" y="1417.0506912442397" as="targetPoint" />
          </mxGeometry>
        </mxCell>
        <mxCell id="Z_bIWVFWov2kq6kV5qWT-157" value="" style="edgeStyle=orthogonalEdgeStyle;rounded=0;orthogonalLoop=1;jettySize=auto;html=1;endArrow=ERoneToMany;endFill=0;fontSize=21;strokeWidth=2;" edge="1" parent="1" source="Z_bIWVFWov2kq6kV5qWT-135" target="TDLvA_YiqEKy6rIOp3gj-17">
          <mxGeometry relative="1" as="geometry" />
        </mxCell>
        <mxCell id="Z_bIWVFWov2kq6kV5qWT-158" value="" style="edgeStyle=orthogonalEdgeStyle;rounded=0;orthogonalLoop=1;jettySize=auto;html=1;endArrow=ERoneToMany;endFill=0;fontSize=21;strokeWidth=2;" edge="1" parent="1" source="Z_bIWVFWov2kq6kV5qWT-135" target="TDLvA_YiqEKy6rIOp3gj-19">
          <mxGeometry relative="1" as="geometry" />
        </mxCell>
        <mxCell id="Z_bIWVFWov2kq6kV5qWT-135" value="with" style="shape=rhombus;perimeter=rhombusPerimeter;whiteSpace=wrap;html=1;align=center;container=0;fontSize=21;strokeWidth=2;" vertex="1" parent="1">
          <mxGeometry x="1842.5803967539073" y="840.552995391705" width="190.8530190072477" height="96.08294930875576" as="geometry" />
        </mxCell>
        <mxCell id="Z_bIWVFWov2kq6kV5qWT-136" value="&lt;u style=&quot;font-size: 21px;&quot;&gt;CustomerID&lt;/u&gt;" style="ellipse;whiteSpace=wrap;html=1;rotation=0;container=0;fontSize=21;strokeWidth=2;" vertex="1" parent="1">
          <mxGeometry x="1063.2002848013103" y="1389.8271889400924" width="143.13976425543578" height="48.04147465437788" as="geometry" />
        </mxCell>
        <mxCell id="Z_bIWVFWov2kq6kV5qWT-137" value="DateOfBirth" style="ellipse;whiteSpace=wrap;html=1;rotation=0;container=0;fontSize=21;strokeWidth=2;" vertex="1" parent="1">
          <mxGeometry x="1207.2784097335318" y="1449.0783410138251" width="127.2353460048318" height="48.04147465437788" as="geometry" />
        </mxCell>
        <mxCell id="Z_bIWVFWov2kq6kV5qWT-138" value="Name" style="ellipse;whiteSpace=wrap;html=1;rotation=0;container=0;fontSize=21;strokeWidth=2;" vertex="1" parent="1">
          <mxGeometry x="1109.9751788763363" y="1485.910138248848" width="97.3032308571951" height="46.44009216589862" as="geometry" />
        </mxCell>
        <mxCell id="Z_bIWVFWov2kq6kV5qWT-139" value="PhoneNo" style="ellipse;whiteSpace=wrap;html=1;rotation=0;container=0;fontSize=21;strokeWidth=2;" vertex="1" parent="1">
          <mxGeometry x="1285.8621403097657" y="1513.1336405529955" width="113.2076491077991" height="46.44009216589862" as="geometry" />
        </mxCell>
        <mxCell id="Z_bIWVFWov2kq6kV5qWT-140" value="Email" style="ellipse;whiteSpace=wrap;html=1;rotation=0;container=0;fontSize=21;strokeWidth=2;" vertex="1" parent="1">
          <mxGeometry x="1387.3641375851205" y="1466.6935483870968" width="97.3032308571951" height="46.44009216589862" as="geometry" />
        </mxCell>
        <mxCell id="Z_bIWVFWov2kq6kV5qWT-141" value="Address" style="ellipse;whiteSpace=wrap;html=1;rotation=0;container=0;fontSize=21;strokeWidth=2;" vertex="1" parent="1">
          <mxGeometry x="1460.8107410664095" y="1543.5599078341015" width="113.2076491077991" height="46.44009216589862" as="geometry" />
        </mxCell>
        <mxCell id="Z_bIWVFWov2kq6kV5qWT-142" value="City" style="ellipse;whiteSpace=wrap;html=1;rotation=-5;container=0;fontSize=21;strokeWidth=2;" vertex="1" parent="1">
          <mxGeometry x="1534.320962220701" y="1497.1198156682028" width="101.43837960235214" height="46.44009216589862" as="geometry" />
        </mxCell>
        <mxCell id="Z_bIWVFWov2kq6kV5qWT-143" value="State" style="ellipse;whiteSpace=wrap;html=1;rotation=-15;container=0;fontSize=21;strokeWidth=2;" vertex="1" parent="1">
          <mxGeometry x="1649.9993418230533" y="1484.3136405529956" width="95.42650950362385" height="48.04147465437788" as="geometry" />
        </mxCell>
        <mxCell id="Z_bIWVFWov2kq6kV5qWT-144" value="Country" style="ellipse;whiteSpace=wrap;html=1;rotation=0;container=0;fontSize=21;strokeWidth=2;" vertex="1" parent="1">
          <mxGeometry x="1660.5861387122459" y="1417.8513824884792" width="117.34279785295611" height="46.44009216589862" as="geometry" />
        </mxCell>
        <mxCell id="Z_bIWVFWov2kq6kV5qWT-145" value="PostalCode" style="ellipse;whiteSpace=wrap;html=1;rotation=0;container=0;fontSize=21;strokeWidth=2;" vertex="1" parent="1">
          <mxGeometry x="1699.4406324984716" y="1341.7857142857142" width="143.13976425543578" height="48.04147465437788" as="geometry" />
        </mxCell>
        <mxCell id="Z_bIWVFWov2kq6kV5qWT-146" value="" style="endArrow=none;html=1;rounded=0;exitX=0.5;exitY=0;exitDx=0;exitDy=0;entryX=0.5;entryY=1;entryDx=0;entryDy=0;fontSize=21;strokeWidth=2;" edge="1" parent="1" source="Z_bIWVFWov2kq6kV5qWT-136" target="TDLvA_YiqEKy6rIOp3gj-16">
          <mxGeometry width="50" height="50" relative="1" as="geometry">
            <mxPoint x="1401.1691726266447" y="1369.0092165898618" as="sourcePoint" />
            <mxPoint x="1683.4725965748653" y="1176.8433179723502" as="targetPoint" />
          </mxGeometry>
        </mxCell>
        <mxCell id="Z_bIWVFWov2kq6kV5qWT-147" value="" style="endArrow=none;html=1;rounded=0;exitX=0.5;exitY=0;exitDx=0;exitDy=0;entryX=0.5;entryY=1;entryDx=0;entryDy=0;fontSize=21;strokeWidth=2;" edge="1" parent="1" source="TDLvA_YiqEKy6rIOp3gj-17" target="Z_bIWVFWov2kq6kV5qWT-111">
          <mxGeometry width="50" height="50" relative="1" as="geometry">
            <mxPoint x="1699.4406324984716" y="824.5391705069126" as="sourcePoint" />
            <mxPoint x="1981.744056446692" y="632.3732718894009" as="targetPoint" />
          </mxGeometry>
        </mxCell>
        <mxCell id="Z_bIWVFWov2kq6kV5qWT-148" value="" style="endArrow=none;html=1;rounded=0;exitX=0.5;exitY=0;exitDx=0;exitDy=0;entryX=0.5;entryY=1;entryDx=0;entryDy=0;fontSize=21;strokeWidth=2;" edge="1" parent="1" source="Z_bIWVFWov2kq6kV5qWT-140" target="TDLvA_YiqEKy6rIOp3gj-16">
          <mxGeometry width="50" height="50" relative="1" as="geometry">
            <mxPoint x="1496.5956821302684" y="1401.036866359447" as="sourcePoint" />
            <mxPoint x="1778.8991060784892" y="1208.8709677419356" as="targetPoint" />
          </mxGeometry>
        </mxCell>
        <mxCell id="Z_bIWVFWov2kq6kV5qWT-149" value="" style="endArrow=none;html=1;rounded=0;exitX=0.5;exitY=0;exitDx=0;exitDy=0;entryX=0.5;entryY=1;entryDx=0;entryDy=0;fontSize=21;strokeWidth=2;" edge="1" parent="1" source="Z_bIWVFWov2kq6kV5qWT-139" target="TDLvA_YiqEKy6rIOp3gj-16">
          <mxGeometry width="50" height="50" relative="1" as="geometry">
            <mxPoint x="1441.86857892994" y="1423.4562211981568" as="sourcePoint" />
            <mxPoint x="1724.1720028781606" y="1231.2903225806451" as="targetPoint" />
          </mxGeometry>
        </mxCell>
        <mxCell id="Z_bIWVFWov2kq6kV5qWT-150" value="" style="endArrow=none;html=1;rounded=0;exitX=0.5;exitY=0;exitDx=0;exitDy=0;entryX=0.5;entryY=1;entryDx=0;entryDy=0;fontSize=21;strokeWidth=2;" edge="1" parent="1" source="Z_bIWVFWov2kq6kV5qWT-138" target="TDLvA_YiqEKy6rIOp3gj-16">
          <mxGeometry width="50" height="50" relative="1" as="geometry">
            <mxPoint x="1357.4320224374837" y="1377.8168202764978" as="sourcePoint" />
            <mxPoint x="1639.735446385704" y="1185.6509216589861" as="targetPoint" />
          </mxGeometry>
        </mxCell>
        <mxCell id="Z_bIWVFWov2kq6kV5qWT-152" value="" style="endArrow=none;html=1;rounded=0;exitX=0.5;exitY=1;exitDx=0;exitDy=0;entryX=0;entryY=0;entryDx=0;entryDy=0;fontSize=21;strokeWidth=2;" edge="1" parent="1" source="TDLvA_YiqEKy6rIOp3gj-16" target="Z_bIWVFWov2kq6kV5qWT-145">
          <mxGeometry width="50" height="50" relative="1" as="geometry">
            <mxPoint x="1588.0460870712416" y="1272.926267281106" as="sourcePoint" />
            <mxPoint x="1870.3495110194617" y="1080.7603686635946" as="targetPoint" />
          </mxGeometry>
        </mxCell>
        <mxCell id="Z_bIWVFWov2kq6kV5qWT-153" value="" style="endArrow=none;html=1;rounded=0;entryX=0.5;entryY=0;entryDx=0;entryDy=0;exitX=0.5;exitY=1;exitDx=0;exitDy=0;fontSize=21;strokeWidth=2;" edge="1" parent="1" source="TDLvA_YiqEKy6rIOp3gj-16" target="Z_bIWVFWov2kq6kV5qWT-143">
          <mxGeometry width="50" height="50" relative="1" as="geometry">
            <mxPoint x="1524.4284140688253" y="1224.884792626728" as="sourcePoint" />
            <mxPoint x="1820.7595349140786" y="1122.3963133640552" as="targetPoint" />
          </mxGeometry>
        </mxCell>
        <mxCell id="Z_bIWVFWov2kq6kV5qWT-154" value="" style="endArrow=none;html=1;rounded=0;exitX=0.5;exitY=0;exitDx=0;exitDy=0;entryX=0.5;entryY=1;entryDx=0;entryDy=0;fontSize=21;strokeWidth=2;" edge="1" parent="1" source="Z_bIWVFWov2kq6kV5qWT-142" target="TDLvA_YiqEKy6rIOp3gj-16">
          <mxGeometry width="50" height="50" relative="1" as="geometry">
            <mxPoint x="1610.9643537703612" y="1336.9815668202764" as="sourcePoint" />
            <mxPoint x="1893.267777718582" y="1144.8156682027652" as="targetPoint" />
          </mxGeometry>
        </mxCell>
        <mxCell id="Z_bIWVFWov2kq6kV5qWT-155" value="" style="endArrow=none;html=1;rounded=0;exitX=0.5;exitY=1;exitDx=0;exitDy=0;entryX=0.5;entryY=0;entryDx=0;entryDy=0;fontSize=21;strokeWidth=2;" edge="1" parent="1" source="TDLvA_YiqEKy6rIOp3gj-16" target="Z_bIWVFWov2kq6kV5qWT-141">
          <mxGeometry width="50" height="50" relative="1" as="geometry">
            <mxPoint x="1502.95744943051" y="1336.9815668202764" as="sourcePoint" />
            <mxPoint x="1785.2608733787306" y="1144.8156682027652" as="targetPoint" />
          </mxGeometry>
        </mxCell>
        <mxCell id="Z_bIWVFWov2kq6kV5qWT-156" value="" style="endArrow=none;html=1;rounded=0;exitX=0.5;exitY=1;exitDx=0;exitDy=0;entryX=0;entryY=0;entryDx=0;entryDy=0;fontSize=21;strokeWidth=2;" edge="1" parent="1" source="TDLvA_YiqEKy6rIOp3gj-16" target="Z_bIWVFWov2kq6kV5qWT-144">
          <mxGeometry width="50" height="50" relative="1" as="geometry">
            <mxPoint x="1629.858802652079" y="1320.9677419354837" as="sourcePoint" />
            <mxPoint x="1912.1622266002996" y="1128.8018433179723" as="targetPoint" />
          </mxGeometry>
        </mxCell>
        <mxCell id="Z_bIWVFWov2kq6kV5qWT-159" value="" style="endArrow=none;html=1;rounded=0;exitX=0.5;exitY=0;exitDx=0;exitDy=0;entryX=0.5;entryY=1;entryDx=0;entryDy=0;fontSize=21;strokeWidth=2;" edge="1" parent="1" source="TDLvA_YiqEKy6rIOp3gj-17" target="Z_bIWVFWov2kq6kV5qWT-110">
          <mxGeometry width="50" height="50" relative="1" as="geometry">
            <mxPoint x="1635.7593418230533" y="824.5391705069126" as="sourcePoint" />
            <mxPoint x="1918.0627657712737" y="632.3732718894009" as="targetPoint" />
          </mxGeometry>
        </mxCell>
        <mxCell id="Z_bIWVFWov2kq6kV5qWT-160" value="" style="endArrow=none;html=1;rounded=0;exitX=0.5;exitY=0;exitDx=0;exitDy=0;entryX=0.5;entryY=1;entryDx=0;entryDy=0;fontSize=21;strokeWidth=2;" edge="1" parent="1" source="TDLvA_YiqEKy6rIOp3gj-17" target="Z_bIWVFWov2kq6kV5qWT-112">
          <mxGeometry width="50" height="50" relative="1" as="geometry">
            <mxPoint x="1751.1299918129346" y="776.4976958525345" as="sourcePoint" />
            <mxPoint x="2033.433415761155" y="584.331797235023" as="targetPoint" />
          </mxGeometry>
        </mxCell>
        <mxCell id="Z_bIWVFWov2kq6kV5qWT-161" value="" style="endArrow=none;html=1;rounded=0;exitX=0.5;exitY=0;exitDx=0;exitDy=0;entryX=0.5;entryY=1;entryDx=0;entryDy=0;fontSize=21;strokeWidth=2;" edge="1" parent="1" source="TDLvA_YiqEKy6rIOp3gj-17" target="Z_bIWVFWov2kq6kV5qWT-113">
          <mxGeometry width="50" height="50" relative="1" as="geometry">
            <mxPoint x="1717.2694853573985" y="792.5115207373273" as="sourcePoint" />
            <mxPoint x="1999.572909305619" y="600.3456221198157" as="targetPoint" />
          </mxGeometry>
        </mxCell>
        <mxCell id="Z_bIWVFWov2kq6kV5qWT-162" value="" style="endArrow=none;html=1;rounded=0;exitX=0.5;exitY=0;exitDx=0;exitDy=0;entryX=0.5;entryY=1;entryDx=0;entryDy=0;fontSize=21;strokeWidth=2;" edge="1" parent="1" source="TDLvA_YiqEKy6rIOp3gj-17" target="Z_bIWVFWov2kq6kV5qWT-114">
          <mxGeometry width="50" height="50" relative="1" as="geometry">
            <mxPoint x="1747.090269577281" y="808.5253456221199" as="sourcePoint" />
            <mxPoint x="2029.393693525502" y="616.3594470046082" as="targetPoint" />
          </mxGeometry>
        </mxCell>
        <mxCell id="Z_bIWVFWov2kq6kV5qWT-163" value="" style="endArrow=none;html=1;rounded=0;exitX=0.5;exitY=0;exitDx=0;exitDy=0;entryX=0.5;entryY=1;entryDx=0;entryDy=0;fontSize=21;strokeWidth=2;" edge="1" parent="1" source="TDLvA_YiqEKy6rIOp3gj-17" target="Z_bIWVFWov2kq6kV5qWT-115">
          <mxGeometry width="50" height="50" relative="1" as="geometry">
            <mxPoint x="1751.1299918129346" y="792.5115207373273" as="sourcePoint" />
            <mxPoint x="2033.433415761155" y="600.3456221198157" as="targetPoint" />
          </mxGeometry>
        </mxCell>
        <mxCell id="Z_bIWVFWov2kq6kV5qWT-164" value="" style="endArrow=none;html=1;rounded=0;exitX=0.5;exitY=0;exitDx=0;exitDy=0;entryX=0.5;entryY=1;entryDx=0;entryDy=0;fontSize=21;strokeWidth=2;" edge="1" parent="1" source="TDLvA_YiqEKy6rIOp3gj-17" target="Z_bIWVFWov2kq6kV5qWT-116">
          <mxGeometry width="50" height="50" relative="1" as="geometry">
            <mxPoint x="2112.891889341173" y="840.552995391705" as="sourcePoint" />
            <mxPoint x="2395.1953132893927" y="648.3870967741937" as="targetPoint" />
          </mxGeometry>
        </mxCell>
      </root>
    </mxGraphModel>
  </diagram>
</mxfile>
